<svg xmlns="http://www.w3.org/2000/svg" viewBox="0 0 456 85.34"><defs><style>.cls-1{fill:#c1272d;}</style></defs><title>Asset 1</title><g id="Layer_2" data-name="Layer 2"><g id="Layer_1-2" data-name="Layer 1"><path class="cls-1" d="M50.88,76c-3.19,2-9.57,4.38-17.74,5.49C14.21,84,0,74.35,0,52.24,0,31.16,14.2,14.52,35,11.73c8.37-1.12,13.66,0,15.95,1q-1,3.68-2.09,7.35A29.21,29.21,0,0,0,35.33,19C19.59,21.09,9.15,32.83,9.15,50.52c0,16.52,9.44,25.62,25.78,23.42a38.83,38.83,0,0,0,14.16-4.62Q50,72.66,50.88,76Z"/><path class="cls-1" d="M61.76,9.51c2.89-.33,5.79-.66,8.68-1v60.1q14.39-1.56,28.79-2.84v7.3q-18.75,1.66-37.47,3.81Z"/><path class="cls-1" d="M162.72,34.46c0,23.21-14.14,36.1-31.37,37.25C113.53,72.9,101,60.25,101,39.84c0-21.39,13.3-36.62,31.33-37.8C150.79.83,162.72,14.47,162.72,34.46Zm-52.39,4.4c0,14.41,7.81,26.63,21.53,25.71S153.5,50.62,153.5,35.3c0-13.38-7-27.08-21.54-26.14S110.33,24.07,110.33,38.86Z"/><path class="cls-1" d="M174,68.4V1c3.18-.12,6.35-.23,9.53-.33Q194.4,17.4,205.23,34.28A184.07,184.07,0,0,1,217.37,56l.2-.1c-.8-9-1-17.2-1-27.7V0l8.22,0V67.4l-8.83,0q-10.72-17-21.46-33.87a208.8,208.8,0,0,1-12.64-22.15l-.3.11c.5,8.48.7,16.58.7,27.78v28.8C179.52,68.2,176.78,68.3,174,68.4Z"/><path class="cls-1" d="M275,36.56q-13.14-.42-26.28-.61v24.3q14.64.21,29.29.71v7.3q-19-.66-38-.81V.05Q258.3.2,276.54.81v7.3q-13.89-.46-27.78-.66v21.3q13.14.18,26.28.61Z"/><path class="cls-1" d="M289.37,1.29q18.19.77,36.37,2v7.3Q311.92,9.65,298.09,9V31.39q12.78.62,25.55,1.45V40q-12.76-.84-25.55-1.45v30.5l-8.72-.4Z"/><path class="cls-1" d="M338.16,4.17c2.9.22,5.8.44,8.7.68V65q14.42,1.17,28.8,2.64v7.3q-18.74-1.91-37.5-3.33Z"/><path class="cls-1" d="M394,9.48V76.89c-2.9-.33-5.79-.66-8.69-1V8.52C388.25,8.83,391.14,9.15,394,9.48Z"/><path class="cls-1" d="M446,83.79,437.4,67.62c-3.48-6.2-5.68-10.21-7.77-14.41l-.2,0c-1.89,3.63-3.78,7-7.27,12.4q-4,6.85-8.07,13.74c-3.32-.43-6.65-.85-10-1.25q10.28-15.8,20.53-31.45-9.86-18-19.74-35.86c3.36.41,6.72.84,10.08,1.27l8.87,17c2.49,4.74,4.38,8.4,6.17,12.25l.3,0c1.89-3.73,3.59-6.59,6.07-10.54l9.16-14.44c3.31.5,6.63,1,9.94,1.53q-10.19,14.79-20.39,29.73Q445.56,66.38,456,85.34C452.65,84.81,449.3,84.3,446,83.79Z"/></g></g></svg>