<svg width="18" height="18" viewBox="0 0 18 18" fill="none" xmlns="http://www.w3.org/2000/svg">
<path d="M5.72736 8.18179C5.51037 8.18179 5.30226 8.26799 5.14882 8.42143C4.99538 8.57487 4.90918 8.78298 4.90918 8.99998C4.90918 9.21697 4.99538 9.42508 5.14882 9.57852C5.30226 9.73196 5.51037 9.81816 5.72736 9.81816H12.2728C12.4898 9.81816 12.6979 9.73196 12.8514 9.57852C13.0048 9.42508 13.091 9.21697 13.091 8.99998C13.091 8.78298 13.0048 8.57487 12.8514 8.42143C12.6979 8.26799 12.4898 8.18179 12.2728 8.18179H5.72736Z" fill="#F8F8F8"/>
<path fill-rule="evenodd" clip-rule="evenodd" d="M18 9C18 13.9705 13.9705 18 9 18C4.02955 18 0 13.9705 0 9C0 4.02955 4.02955 0 9 0C13.9705 0 18 4.02955 18 9ZM16.3636 9C16.3636 9.96701 16.1732 10.9245 15.8031 11.8179C15.4331 12.7113 14.8907 13.5231 14.2069 14.2069C13.5231 14.8907 12.7113 15.4331 11.8179 15.8031C10.9245 16.1732 9.96701 16.3636 9 16.3636C8.03299 16.3636 7.07546 16.1732 6.18206 15.8031C5.28866 15.4331 4.4769 14.8907 3.79312 14.2069C3.10935 13.5231 2.56694 12.7113 2.19689 11.8179C1.82683 10.9245 1.63636 9.96701 1.63636 9C1.63636 7.04704 2.41217 5.17407 3.79312 3.79312C5.17407 2.41217 7.04704 1.63636 9 1.63636C10.953 1.63636 12.8259 2.41217 14.2069 3.79312C15.5878 5.17407 16.3636 7.04704 16.3636 9Z" fill="#F8F8F8"/>
</svg>
